/* XPM */
static char *efface_arrete[] = {
"24 24 57 1 0 0",
"  c #000000",
"! c #000205",
"# c #0D060D",
"$ c #001427",
"% c #001D3B",
"& c #3B1D3B",
"' c #3D1F3D",
"( c #452345",
") c #222C47",
"* c #00264B",
"+ c #00264D",
", c #4F274F",
"- c #002F5D",
". c #613161",
"/ c #113B64",
"0 c #717171",
"1 c #003972",
"2 c #303C78",
"3 c #3E5F7E",
"4 c #00407F",
"5 c #7F407F",
"6 c #275684",
"7 c #864386",
"8 c #8A748A",
"9 c #8F4E8F",
": c #918391",
"; c #125394",
"< c #0050A0",
"= c #0054A7",
"> c #9D55AA",
"? c #9DA5AD",
"@ c #B45AB4",
"A c #B4B4B4",
"B c #005BB5",
"C c #B55BB5",
"D c #005FBC",
"E c #C060C0",
"F c #CA65CA",
"G c #006BD4",
"H c #D46BD4",
"I c #006BD5",
"J c #D86CD8",
"K c #D96ED9",
"L c #D9D9D9",
"M c #DA6DDA",
"N c #0070DF",
"O c #DF70DF",
"P c #0073E4",
"Q c #EFEFEF",
"R c #F279F2",
"S c #007BF5",
"T c #F77CF7",
"U c #007DFA",
"V c #0080FF",
"W c #FF80FF",
"X c #FFFFFF",
"Y c None",
"YYYYYYYYYYYYYYYYYYYYYYYY",
"YYYYYYYYYYYYYYYYYYYYYYYY",
"YYYYYYYYYYYYYYYY    YYYY",
"YYYYYYYYYYYYYYYY    YYYY",
"YYYYYYYYYYYYYYYY    YYYY",
"YYYYYYYYYYYYYY      YYYY",
"YYYYYYYYYYYY  YYYYYYYYYY",
"YYYYYYYYYY  YYYYYYYYYYYY",
"YYYYYYYY  YYYYYY*YYYYYYY",
"YY      YYYYYYY-P4$YYYYY",
"YY    YYYYYYYY GVVI%YYYY",
"YY    YYYYYYYY;UVVV=YYYY",
"YY    YYYYYYY6VVVVV+YYYY",
"YYYYYYYYYYYY?DVVVV1YYYYY",
"YYYYYYYYYYYY)NVVV<!YYYYY",
"YYYYYYYYYYY8F5BVS3YYYYYY",
"YYYYYYYYYYYKWW>2/QYYYYYY",
"YYYYYYYYYY,TWWWE0YYYYYYY",
"YYYYYYYYY.WWWWJ:YYYYYYYY",
"YYYYYYYYY@WWWW9LYYYYYYYY",
"YYYYYYYY&HWWWCAYYYYYYYYY",
"YYYYYYYYY'OWM#YYYYYYYYYY",
"YYYYYYYYYY(R7YYYYYYYYYYY",
"YYYYYYYYYYYYYYYYYYYYYYYY"
};
