/* XPM */
static char *Icone[] = {
"24 24 3 1 0 0",
"  c #000000",
"! c #0080FF",
"# c None",
"##########  ##########  ",
"#        ##  ########  #",
"#        ##  ########  #",
"#  ####  ###  ######  ##",
"#  ####  ###  ###### ###",
"#        ####        ###",
"#        ####       ####",
"########################",
"!#####################!!",
"!!!!################!!!!",
"!!!!!!!###########!!!!!!",
"!!!!!!!!########!!!!!!!!",
"!!!!!!!!!#####!!!!!!!!!!",
"!!!!!!!!!!###!!!!!!!!!!!",
"!!!!!!!!!!!!!!!!!!!!!!!!",
"!!!!!!!!!!!!!!!!!!!!!!  ",
"!!!!!!!!!!!!!!!!!!!   ##",
"!!!!!!!!!!!!!!!    #####",
"!!!!!!!!!!!!   ####    #",
"!!!!!!!!!   ######      ",
"!!!!!    #########  ##  ",
"!!   #############  ##  ",
"  ################      ",
"###################    #"
};
