/* XPM */
static char *INterpoleFECurseur[] = {
"24 24 2 1 3 3",
"  c #000000",
"! c None",
"!!! !!!!!!!!!!!!!!!!!!!!",
"!!! !!!!!!!!!!!!!!!!!!!!",
"!!! !!!!!!!!!!!!!!!!!!!!",
"   !   !!!!!!!!!!!!!!!!!",
"!!! !!!!!!!!!!!!!!!!!!!!",
"!!! !!!!!!!!!!!!!!!!!!!!",
"!!! !!!!!!!!!!!!!!!!!!!!",
"!!!!!!     !!!!!!!!!!!!!",
"!!!!!!!!!!!        !!!!!",
"!!!!!! !!!!!!!!!!!!     ",
"!!!!!! !!!!!!!!!!!!!!!!!",
"!!!!!! !!!!!!!!!!!!!!!!!",
"!!!!!! !!!!!!!!!!!!!!! !",
"!!!!!! !!!!!!!!!!!!!!! !",
"!!!!!! !!!!!!!!!!!!!!! !",
"!!!!!! !!!!!!!!!!!!!!! !",
"!!!!!   !!!!!!!!!!!!!! !",
"!!!!!   !!!!!!!!!!!!!! !",
"!!!!!! !!!!!!!!!!!!!!! !",
"!!!!!!   !!!!!!!!!!!!! !",
"!!!!!!!!!    !!!!!!!!   ",
"!!!!!!!!!!!!!    !!!!   ",
"!!!!!!!!!!!!!!!!!    ! !",
"!!!!!!!!!!!!!!!!!!!!!   "
};
