/* XPM */
static char *PointPenteCurseur[] = {
"24 24 3 1 3 3",
"  c #000000",
"! c #FFFFFF",
"# c None",
"### ####################",
"### ####################",
"### ####################",
"   #   #################",
"### ####################",
"### ####################",
"### ####################",
"######     #############",
"###########        #####",
"###################     ",
"########################",
"###### #################",
"###### #####   #########",
"###### ####### # #######",
"###### ##### # #########",
"###### ###### # ########",
"#####   ######## # #####",
"#####   ###### # #######",
"###### #########   #####",
"######   ###############",
"#########    ###########",
"#############    #######",
"#################    ###",
"#####################   "
};
