/* XPM */
static char *Selection[] = {
"24 24 4 1 0 0",
"  c #000000",
"! c #FF0000",
"# c #80FF80",
"$ c None",
"$$$$$$$$$$$$$$$$$$$$$$$$",
"$$$$$$$$$$$$$$$$$$$$$$$$",
"$$$###$$$$$$$$$$$$$$$$$$",
"$$#!!!#$$$$$$$$$$$$$$$$$",
"$$#!!!#$$$$$$$$$###$$$$$",
"$$#!!!#$$$$$$$$#!!!#$$$$",
"$$$###$$$$$$$$$#!!!#$$$$",
"$$$$##$$$$$$$$$#!!!#$$$$",
"$$$$##$$$$$$$$#####$$$$$",
"$$$$##$$$$$$$###$$$$$$$$",
"$$$$##$$$$$$###$$$$$$$$$",
"$$$$###$$$$$##$$$$$$$$$$",
"$$$$$##$$$$###$$$$$$$$$$",
"$$$$$##$$$###$$$$$$$$$$$",
"$$$$$##$$$##$$$$$$$$$$$$",
"$$$$$##$$###$$$$$$$$$$$$",
"$$$$$######$$$$$$$$$$$$$",
"$$$$#!!!##$$$$$$$$$$$$$$",
"$$$$#!!!#$$$$$$$$$$$$$$$",
"$$$$#!!!#$$$$$$$$$$$$$$$",
"$$$$$###$$$$$$$$$$$$$$$$",
"$$$$$$$$$$$$$$$$$$$$$$$$",
"$$$$$$$$$$$$$$$$$$$$$$$$",
"$$$$$$$$$$$$$$$$$$$$$$$$"
};
