<svg height="267.20993" viewBox="-.164645 -.309681 225.00001 200.40744" width="300" xmlns="http://www.w3.org/2000/svg" xmlns:xlink="http://www.w3.org/1999/xlink"><defs><path id="a" d="m6.498827-9.95626h-1.305504l-4.605129 9.95626h10.515761zm-1.750236 3.299625c.502117-1.147695.803387-1.793274.961195-2.266699.129116.344309.286924.71731.516463 1.262466.172154.387347.444732 1.018579.530809 1.190734l2.4532 5.308092h-6.986598z"/><path id="b" d="m3.79151 1.995009v-.049627c-1.290304-1.161274-2.064487-2.908148-2.064487-4.714574 0-1.796501.774183-3.5533 2.064487-4.7245v-.049627h-1.101721c-1.151349 1.310155-1.816352 2.828745-1.816352 4.774127s.665003 3.454046 1.816352 4.764201z"/><path id="c" d="m3.632704-2.769192c0-1.945382-.665003-3.463972-1.806427-4.774127h-1.111647v.049627c1.30023 1.1712 2.064488 2.927999 2.064488 4.7245 0 1.806426-.764258 3.5533-2.064488 4.714574v.049627h1.111647c1.141424-1.310155 1.806427-2.818819 1.806427-4.764201z"/><path id="d" d="m7.106601-2.769192v-.774183h-2.640162v-2.650087h-.803959v2.650087h-2.640162v.774183h2.640162v2.640162h.803959v-2.640162z"/><path id="e" d="m5.250547 0v-.734481h-1.468962v-6.50115h-.754332c-.039702.704705-.535973 1.002467-1.677396 1.002467v.655078h1.498738v4.843605h-1.498738v.734481z"/><path id="f" d="m5.667415 0v-.82381h-3.880839c2.789043-2.372175 3.573151-3.176134 3.573151-4.555768 0-1.220826-.893288-1.985083-2.372176-1.985083-.71463 0-1.568216.218359-2.024785.446643v1.022319h.049627c.645152-.426793 1.369708-.635227 1.955308-.635227.883362 0 1.399484.446644 1.399484 1.200976 0 1.08187-.635227 1.786575-3.583077 4.317557v1.012393z"/><path id="g" d="m5.56816-2.133965c0-.992542-.565748-1.64762-1.578141-1.806427v-.069478c.764257-.158806 1.419335-.813884 1.419335-1.617843 0-.674929-.377166-1.736948-2.36225-1.736948-.71463 0-1.568216.228284-2.024786.456569v1.012393h.039702c.615376-.406943 1.349857-.635227 1.965233-.635227.903213 0 1.399484.36724 1.399484 1.002467 0 .853586-.5856 1.210901-1.945382 1.210901v.803959c1.607918 0 2.094264.267987 2.094264 1.30023 0 .962766-.625302 1.528515-1.64762 1.528515-.69478 0-1.498739-.267986-2.044637-.635227h-.069478v1.012393c.496271.228285 1.330007.456569 2.133966.456569 1.607918 0 2.62031-.942915 2.62031-2.282846z"/><path id="h" d="m6.937868-3.79151v-.774183h-5.746818v.774183zm0 2.034711v-.774183h-5.746818v.774183z"/><use id="i" height="100%" transform="scale(1.439999)" width="100%" xlink:href="#b"/><use id="j" height="100%" transform="scale(1.439999)" width="100%" xlink:href="#c"/><use id="k" height="100%" transform="scale(1.439999)" width="100%" xlink:href="#d"/><use id="l" height="100%" transform="scale(1.439999)" width="100%" xlink:href="#e"/><use id="m" height="100%" transform="scale(1.439999)" width="100%" xlink:href="#f"/><use id="n" height="100%" transform="scale(1.439999)" width="100%" xlink:href="#h"/><use id="o" height="100%" transform="scale(.694445)" width="100%" xlink:href="#p"/><path id="p" d="m9.454143-3.299625c.243885 0 .502117 0 .502117-.286924s-.258232-.286924-.502117-.286924h-7.761292c-.243885 0-.502117 0-.502117.286924s.258232.286924.502117.286924z"/><path id="q" d="m2.75447-3.586549c0-.41604-.344309-.760348-.760349-.760348s-.760348.344308-.760348.760348.344309.760348.760348.760348.760349-.344308.760349-.760348z"/><path id="r" d="m3.573151.12903c1.002468 0 1.905681-.327538 2.580609-.665003l.228285-1.121572h-.069478c-.843661.665003-1.717098.992542-2.620311.992542-1.310155 0-2.024785-.774183-2.024785-2.104189 0-2.183592 1.30023-3.79151 3.106656-3.79151.923064 0 1.607918.287837 2.25307.932989h.079404l.218359-1.081871c-.784108-.446644-1.498739-.635227-2.332474-.635227-2.570684 0-4.347334 1.945383-4.347334 4.754276 0 1.736949 1.101722 2.719565 2.927999 2.719565z"/><path id="s" d="m2.898223 0 .158806-.704705h-.95284l1.349857-5.80637h.942915l.158807-.704705h-2.858521l-.158807.704705h.942915l-1.339932 5.80637h-.942915l-.168732.704705z"/><path id="t" d="m6.223238 0-2.590534-3.761734 3.960242-3.454046h-1.220827l-4.248079 3.741883.873437-3.741883h-.962766l-1.66747 7.21578h.962765l.545898-2.382101.992542-.84366 2.223294 3.225761z"/><path id="u" d="m7.573095-4.664947c0-1.736949-1.032243-2.699714-2.749341-2.699714-2.521057 0-4.178602 2.163741-4.178602 4.803903 0 1.736948 1.032244 2.709639 2.749342 2.709639 2.421802 0 4.178601-2.024785 4.178601-4.813828zm-1.012393.138956c0 2.25307-1.290304 3.890764-3.007402 3.890764-1.200976 0-1.895755-.744406-1.895755-2.074413 0-2.223294 1.290305-3.870913 3.017328-3.870913 1.19105 0 1.885829.734481 1.885829 2.054562z"/><path id="v" d="m4.337408-5.409354h-1.885829l.36724-1.558291h-.913138l-.367241 1.558291h-.615376l-.158807.734481h.615376l-.674928 2.908148c-.049627.258061-.079404.446644-.079404.655078 0 .843661.506197 1.220827 1.399485 1.220827.317613 0 .754332-.069478 1.121572-.158807l.168732-.784108h-.049627c-.12903.049627-.575674.178657-.843661.178657-.645152 0-.84366-.228284-.84366-.704705 0-.188582.059552-.565748.12903-.823809l.575675-2.491281h1.885829z"/><path id="w" d="m2.451579-2.739416-2.789043 2.739416h1.121572l2.034711-2.074413 1.111647 2.074413h1.032244l-1.518589-2.689789 2.769192-2.719565h-1.121573l-2.01486 2.064488-1.121572-2.064488h-1.022319z"/><path id="x" d="m4.592777-6.914072h-.896638l-3.277708 6.914072h7.452055zm-1.594022 3.048568c.557908-1.195517.916563-1.96264 1.036114-2.361146.039851.129514.109589.33873.647572 1.504359l1.8132 3.895392h-4.921544z"/><use id="y" height="100%" transform="scale(1.439999)" width="100%" xlink:href="#r"/><use id="z" height="100%" transform="scale(1.439999)" width="100%" xlink:href="#s"/><use id="A" height="100%" transform="scale(1.439999)" width="100%" xlink:href="#t"/><use id="B" height="100%" transform="scale(1.439999)" width="100%" xlink:href="#u"/><use id="C" height="100%" transform="scale(1.439999)" width="100%" xlink:href="#v"/><use id="D" height="100%" transform="scale(1.439999)" width="100%" xlink:href="#w"/></defs><g stroke-width="1.145146" transform="matrix(.95626365 0 0 1.0182571 -37.158192 -74.725006)"><use height="100%" width="100%" x="38.854298" xlink:href="#B" y="83.68618"/><use height="100%" width="100%" x="50.144749" xlink:href="#v" y="85.838097"/><use height="100%" width="100%" x="58.981529" xlink:href="#n" y="83.68618"/><use height="100%" width="100%" x="74.701714" xlink:href="#y" y="83.68618"/><use height="100%" width="100%" x="84.715355" xlink:href="#e" y="86.012474"/><use height="100%" width="100%" x="94.737709" xlink:href="#q" y="83.68618"/><use height="100%" width="100%" x="101.91077" xlink:href="#z" y="83.68618"/><use height="100%" width="100%" x="107.95051" xlink:href="#v" y="85.838097"/><use height="100%" width="100%" x="115.9903" xlink:href="#k" y="83.68618"/><use height="100%" width="100%" x="130.91347" xlink:href="#y" y="83.68618"/><use height="100%" width="100%" x="140.92712" xlink:href="#f" y="86.136993"/><use height="100%" width="100%" x="150.94948" xlink:href="#q" y="83.68618"/><use height="100%" width="100%" x="158.12253" xlink:href="#z" y="83.68618"/><use height="100%" width="100%" x="164.16228" xlink:href="#v" y="85.838097"/><use height="100%" width="100%" x="168.51595" xlink:href="#o" y="85.838097"/><use height="100%" width="100%" x="176.26469" xlink:href="#x" y="85.838097"/><use height="100%" width="100%" x="184.56691" xlink:href="#v" y="85.838097"/><use height="100%" width="100%" x="192.60667" xlink:href="#k" y="83.68618"/><use height="100%" width="100%" x="207.52986" xlink:href="#y" y="83.68618"/><use height="100%" width="100%" x="217.5435" xlink:href="#g" y="86.136993"/><use height="100%" width="100%" x="227.56586" xlink:href="#q" y="83.68618"/><use height="100%" width="100%" x="234.73892" xlink:href="#B" y="83.68618"/><use height="100%" width="100%" x="246.02937" xlink:href="#v" y="85.838097"/><use height="100%" width="100%" x="250.38304" xlink:href="#o" y="85.838097"/><use height="100%" width="100%" x="258.13177" xlink:href="#x" y="85.838097"/><use height="100%" width="100%" x="266.43402" xlink:href="#v" y="85.838097"/><use height="100%" width="100%" x="38.854298" xlink:href="#y" y="122.96536"/><use height="100%" width="100%" x="48.867939" xlink:href="#e" y="125.29166"/><use height="100%" width="100%" x="59.68729" xlink:href="#n" y="122.96536"/><use height="100%" width="100%" x="96.733841" xlink:href="#a" y="113.26006"/><use height="100%" width="100%" x="108.43982" xlink:href="#C" y="113.26006"/><use height="100%" width="100%" x="117.8971" xlink:href="#p" y="113.26006"/><use height="100%" width="100%" x="132.24329" xlink:href="#m" y="113.26006"/><use height="100%" width="100%" x="144.55547" xlink:href="#q" y="113.26006"/><use height="100%" width="100%" x="151.72853" xlink:href="#A" y="113.26006"/><use height="100%" width="100%" x="165.89134" xlink:href="#q" y="113.26006"/><use height="100%" width="100%" x="173.06441" xlink:href="#D" y="113.26006"/><path d="m76.602989 119.0919h125.57291v.573822h-125.57291z"/><use height="100%" width="100%" x="76.602989" xlink:href="#m" y="132.80614"/><use height="100%" width="100%" x="88.915161" xlink:href="#q" y="132.80614"/><use height="100%" width="100%" x="96.088219" xlink:href="#A" y="132.80614"/><use height="100%" width="100%" x="110.25105" xlink:href="#q" y="132.80614"/><use height="100%" width="100%" x="117.42411" xlink:href="#i" y="132.80614"/><use height="100%" width="100%" x="123.93729" xlink:href="#l" y="132.80614"/><use height="100%" width="100%" x="136.24947" xlink:href="#p" y="132.80614"/><use height="100%" width="100%" x="150.59564" xlink:href="#D" y="132.80614"/><use height="100%" width="100%" x="159.57635" xlink:href="#j" y="132.80614"/><use height="100%" width="100%" x="169.27754" xlink:href="#k" y="132.80614"/><use height="100%" width="100%" x="184.20071" xlink:href="#a" y="132.80614"/><use height="100%" width="100%" x="195.90669" xlink:href="#C" y="132.80614"/><use height="100%" width="100%" x="38.854298" xlink:href="#y" y="180.17731"/><use height="100%" width="100%" x="48.867939" xlink:href="#f" y="182.62811"/><use height="100%" width="100%" x="59.68729" xlink:href="#n" y="180.17731"/><use height="100%" width="100%" x="96.445343" xlink:href="#a" y="170.472"/><use height="100%" width="100%" x="108.15131" xlink:href="#C" y="170.472"/><use height="100%" width="100%" x="117.6086" xlink:href="#k" y="170.472"/><use height="100%" width="100%" x="132.53178" xlink:href="#m" y="170.472"/><use height="100%" width="100%" x="144.84396" xlink:href="#q" y="170.472"/><use height="100%" width="100%" x="152.01701" xlink:href="#A" y="170.472"/><use height="100%" width="100%" x="166.17984" xlink:href="#q" y="170.472"/><use height="100%" width="100%" x="173.35291" xlink:href="#D" y="170.472"/><path d="m76.602989 176.30385h125.57291v.573822h-125.57291z"/><use height="100%" width="100%" x="76.602989" xlink:href="#m" y="190.01807"/><use height="100%" width="100%" x="88.915161" xlink:href="#q" y="190.01807"/><use height="100%" width="100%" x="96.088219" xlink:href="#A" y="190.01807"/><use height="100%" width="100%" x="110.25105" xlink:href="#q" y="190.01807"/><use height="100%" width="100%" x="117.42411" xlink:href="#i" y="190.01807"/><use height="100%" width="100%" x="123.93729" xlink:href="#l" y="190.01807"/><use height="100%" width="100%" x="136.24947" xlink:href="#p" y="190.01807"/><use height="100%" width="100%" x="150.59564" xlink:href="#D" y="190.01807"/><use height="100%" width="100%" x="159.57635" xlink:href="#j" y="190.01807"/><use height="100%" width="100%" x="169.27754" xlink:href="#k" y="190.01807"/><use height="100%" width="100%" x="184.20071" xlink:href="#a" y="190.01807"/><use height="100%" width="100%" x="195.90669" xlink:href="#C" y="190.01807"/><use height="100%" width="100%" x="38.854298" xlink:href="#y" y="237.71921"/><use height="100%" width="100%" x="48.867939" xlink:href="#g" y="240.17003"/><use height="100%" width="100%" x="59.68729" xlink:href="#n" y="237.71921"/><use height="100%" width="100%" x="76.891487" xlink:href="#m" y="228.0139"/><use height="100%" width="100%" x="89.203659" xlink:href="#q" y="228.0139"/><use height="100%" width="100%" x="96.376724" xlink:href="#A" y="228.0139"/><use height="100%" width="100%" x="110.53954" xlink:href="#q" y="228.0139"/><use height="100%" width="100%" x="117.71261" xlink:href="#i" y="228.0139"/><use height="100%" width="100%" x="124.22578" xlink:href="#l" y="228.0139"/><use height="100%" width="100%" x="136.53796" xlink:href="#p" y="228.0139"/><use height="100%" width="100%" x="150.88414" xlink:href="#D" y="228.0139"/><use height="100%" width="100%" x="159.86485" xlink:href="#j" y="228.0139"/><use height="100%" width="100%" x="169.56604" xlink:href="#p" y="228.0139"/><use height="100%" width="100%" x="183.91222" xlink:href="#a" y="228.0139"/><use height="100%" width="100%" x="195.61819" xlink:href="#C" y="228.0139"/><path d="m76.602989 233.84575h125.57291v.573822h-125.57291z"/><use height="100%" width="100%" x="76.602989" xlink:href="#m" y="247.55998"/><use height="100%" width="100%" x="88.915161" xlink:href="#q" y="247.55998"/><use height="100%" width="100%" x="96.088219" xlink:href="#A" y="247.55998"/><use height="100%" width="100%" x="110.25105" xlink:href="#q" y="247.55998"/><use height="100%" width="100%" x="117.42411" xlink:href="#i" y="247.55998"/><use height="100%" width="100%" x="123.93729" xlink:href="#l" y="247.55998"/><use height="100%" width="100%" x="136.24947" xlink:href="#p" y="247.55998"/><use height="100%" width="100%" x="150.59564" xlink:href="#D" y="247.55998"/><use height="100%" width="100%" x="159.57635" xlink:href="#j" y="247.55998"/><use height="100%" width="100%" x="169.27754" xlink:href="#k" y="247.55998"/><use height="100%" width="100%" x="184.20071" xlink:href="#a" y="247.55998"/><use height="100%" width="100%" x="195.90669" xlink:href="#C" y="247.55998"/></g></svg>