<?xml version="1.0" encoding="UTF-8" standalone="no"?>
<svg
   xmlns:dc="http://purl.org/dc/elements/1.1/"
   xmlns:cc="http://creativecommons.org/ns#"
   xmlns:rdf="http://www.w3.org/1999/02/22-rdf-syntax-ns#"
   xmlns:svg="http://www.w3.org/2000/svg"
   xmlns="http://www.w3.org/2000/svg"
   xmlns:xlink="http://www.w3.org/1999/xlink"
   id="svg1653"
   version="1.1"
   viewBox="-17.582 -4.664 71.571 87.246"
   height="885"
   width="726">
  <metadata
     id="metadata1659">
    <rdf:RDF>
      <cc:Work
         rdf:about="">
        <dc:format>image/svg+xml</dc:format>
        <dc:type
           rdf:resource="http://purl.org/dc/dcmitype/StillImage" />
        <dc:title>Flag of Nepal</dc:title>
      </cc:Work>
    </rdf:RDF>
  </metadata>
  <defs
     id="defs1657" />
  <title
     id="title1640">Flag of Nepal</title>
  <desc
     id="desc1642">Coding according to the official construction in &quot;Constitution of the Kingdom of Nepal, Article 5, Schedule 1&quot;, adopted in November 1990</desc>
  <use
     id="use1644"
     xlink:href="#a"
     stroke-width="5.165"
     stroke="#003893" />
  <path
     d="M-15 37.57h60L-15 0v80h60l-60-60z"
     fill="#DC143C"
     id="a" />
  <g
     id="g1651"
     fill="#fff">
    <path
       id="path1647"
       d="M0 35.43c6.6 0 11.95-5.35 11.95-11.95C10.9 26.15 9 28.36 6.58 29.8l-1.02-.76 2-1.5-2.42-.62 1.28-2.17-2.5.36.37-2.48-2.17 1.3-.62-2.45-1.5 2-1.5-2-.63 2.44-2.16-1.28.37 2.5-2.5-.37 1.3 2.17-2.44.62 2 1.5-1 .77c-2.37-1.4-4.3-3.56-5.38-6.32 0 6.6 5.35 11.95 11.95 11.95z" />
    <path
       id="path1649"
       d="M-5.76 53.03l-5.36-.66 3.25 4.3-4.97 2.12 4.97 2.1-3.25 4.3 5.36-.66-.66 5.37 4.3-3.25L0 71.63l2.1-4.98 4.32 3.26-.66-5.36 5.36.67-3.25-4.3 4.97-2.1-4.97-2.12 3.25-4.3-5.36.65.66-5.36-4.3 3.25L0 45.95l-2.1 4.97-4.32-3.25.66 5.36z" />
  </g>
</svg>
