/* XPM */
static char *AppliqueSectionCurseur[] = {
"24 24 3 1 0 0",
"  c #000000",
"! c #FFFFFF",
"# c None",
"### ####################",
"### ####################",
"### ####################",
"   #   #################",
"### ####################",
"### ####################",
"### ####################",
"###########       ######",
"################# ######",
"################# ######",
"################# ######",
"################# ######",
"###########       ######",
"########################",
"#################### ###",
"###################    #",
"#######                #",
"###################    #",
"#############   #### ###",
"################ #######",
"########### ############",
"########### ############",
"############ ###########",
"########################"
};
