/* XPM */
static char *deplace[] = {
"24 24 3 1 4 1",
"  c #000000",
"! c #FF0000",
"# c None",
"########################",
"##################   ###",
"################# !!! ##",
"################ !!!!! #",
"################ !!!!! #",
"################ !!!!! #",
"################# !!! ##",
"########## #######   ###",
"#########   ############",
"########     ###########",
"#######       ##########",
"#########   ############",
"##### ###   ### ########",
"####  ###   ###  #######",
"###      ###      ######",
"##       ###       #####",
"###      ###      ######",
"####  ###   ###  #######",
"##### ###   ### ########",
"#########   ############",
"#######       ##########",
"########     ###########",
"#########   ############",
"########## #############"
};
