/* XPM */
static char *Edittroncon[] = {
"24 24 4 1 4 6",
"  c #000000",
"! c #804000",
"# c #FFFFFF",
"$ c None",
"$$$$$$$$$$$$$$$$$$$$$$$$",
"$$$$$$$$$$$$$$$$$$$$$$$$",
"$$$$$$$$$$$$$$$$$$$$$$$$",
"$$$$$$$$$$$$$$$$$$$$$$$$",
"$$$$$$$$$$$$$$$$$$$$$$$$",
"     $$$$$$$$$$$$$$$$$$$",
"$$$$$          $$$$$$$$$",
"$$$$$$$$$$$$$$      $$$$",
"$$$$$$$$$$$$$$$$$   $$$$",
"$$$$$$$$$$$$$$$### $$$$$",
"$$$$$$$$$$$$$!####$$$$$$",
"$$$$$$$$$$$$!!!###$$$$$$",
"$$$$$$$$$$$!!!!!#$$$$$$$",
"$$$$$$$$$$!!!!!!!$$$$$$$",
"$$$$$$$$$!!!!!!!$$$$$$$$",
"$$$$$$$$!!!!!!!$$$$$$$$$",
"$$$$$$$!!!!!!!$$$$$$$$$$",
"$$$$$$!!!!!!!$$$$$$$$$$$",
"$$$$$!!!!!!!$$$$$$$$$$$$",
"$$$$!!!!!!!$$$$$$$$$$$$$",
"$$$!!!!!!!$$$$$$$$$$$$$$",
"$$!!!!!!!$$$$$$$$$$$$$$$",
"$!!!!!!!$$$$$$$$$$$$$$$$",
"$$!!!!!$$$$$$$$$$$$$$$$$"
};
