/* XPM */
static char *Supprime[] = {
"24 24 4 1 0 0",
"  c #000000",
"! c #0080FF",
"# c #FF80FF",
"$ c None",
"$$$$$$$$$$$$$$$$ $$$$$$$",
"$$$$$$$$$$$$$$$ ! $$$$$$",
"$$$$$$$$$$$$$$ !!!  $$$$",
"$$$$$$$$$$$$$ !!!!!! $$$",
"$$$$$$$$$$$$$ !!!!!!! $$",
"$$$$$$$$$$$$ !!!!!!!!! $",
"$$$$$$$$$$$ !!!!!!!!! $$",
"$$$$$$$$$$ !!!!!!!!!! $$",
"$$$$$$$$$$ !!!!!!!!! $$$",
"$$$$$$$$$ !!!!!!!!! $$$$",
"$$$$$$$$  !!!!!!!! $$$$$",
"$$$$$$$$ #  !!!!!! $$$$$",
"$$$$$$$ #### !!!! $$$$$$",
"$$$$$$ ######  ! $$$$$$$",
"$$$$$$ ########  $$$$$$$",
"$$$$$ ######### $$$$$$$$",
"$$$$ ######### $$$$$$$$$",
"$$$ ######### $$$$$$$$$$",
"$$$ ######### $$$$$$$$$$",
"$$ ######### $$$$$$$$$$$",
"$$$ ####### $$$$$$$$$$$$",
"$$$$ ##### $$$$$$$$$$$$$",
"$$$$$ #### $$$$$$$$$$$$$",
"$$$$$$ ## $$$$$$$$$$$$$$"
};
