<?xml version="1.0" encoding="UTF-8" standalone="no"?>
<!-- Created with Inkscape (http://www.inkscape.org/) -->

<svg
   xmlns:dc="http://purl.org/dc/elements/1.1/"
   xmlns:cc="http://creativecommons.org/ns#"
   xmlns:rdf="http://www.w3.org/1999/02/22-rdf-syntax-ns#"
   xmlns:svg="http://www.w3.org/2000/svg"
   xmlns="http://www.w3.org/2000/svg"
   xmlns:sodipodi="http://sodipodi.sourceforge.net/DTD/sodipodi-0.dtd"
   xmlns:inkscape="http://www.inkscape.org/namespaces/inkscape"
   width="24"
   height="24"
   viewBox="0 0 6.3499998 6.3499998"
   version="1.1"
   id="svg821"
   inkscape:version="0.92.5 (2060ec1f9f, 2020-04-08)"
   sodipodi:docname="mActionAddVectorLayer.svg">
  <defs
     id="defs815">
    <filter
       inkscape:collect="always"
       style="color-interpolation-filters:sRGB"
       id="filter2391"
       x="-0.13999999999999999"
       width="1.2600000000000002"
       y="-0.10999999999999997"
       height="1.2200000000000002">
      <feGaussianBlur
         inkscape:collect="always"
         stdDeviation="0.082952075"
         id="feGaussianBlur2393" />
    </filter>
    <filter
       inkscape:collect="always"
       style="color-interpolation-filters:sRGB"
       id="filter3008"
       x="-0.060342875"
       width="1.1206857"
       y="-0.075832388"
       height="1.1516648">
      <feGaussianBlur
         inkscape:collect="always"
         stdDeviation="0.56425617"
         id="feGaussianBlur3010" />
    </filter>
  </defs>
  <sodipodi:namedview
     id="base"
     pagecolor="#ffffff"
     bordercolor="#666666"
     borderopacity="1.0"
     inkscape:pageopacity="0.0"
     inkscape:pageshadow="2"
     inkscape:zoom="7.9195959"
     inkscape:cx="23.416008"
     inkscape:cy="10.414442"
     inkscape:document-units="mm"
     inkscape:current-layer="layer1"
     showgrid="false"
     inkscape:snap-nodes="true"
     inkscape:snap-global="true"
     showguides="true"
     inkscape:guide-bbox="true"
     inkscape:snap-midpoints="true"
     fit-margin-top="0"
     fit-margin-left="0"
     fit-margin-right="0"
     fit-margin-bottom="0"
     inkscape:window-width="1920"
     inkscape:window-height="1015"
     inkscape:window-x="1920"
     inkscape:window-y="0"
     inkscape:window-maximized="1"
     units="px" />
  <metadata
     id="metadata818">
    <rdf:RDF>
      <cc:Work
         rdf:about="">
        <dc:format>image/svg+xml</dc:format>
        <dc:type
           rdf:resource="http://purl.org/dc/dcmitype/StillImage" />
        <dc:title></dc:title>
      </cc:Work>
    </rdf:RDF>
  </metadata>
  <g
     inkscape:label="Calque 1"
     inkscape:groupmode="layer"
     id="layer1"
     transform="translate(244.88291,-50.630614)">
    <g
       transform="matrix(0.228267,0,0,0.22786933,-244.4991,50.780464)"
       style="stroke:#2b3b4d;stroke-width:1.16010678;stroke-linecap:round;stroke-linejoin:round;filter:url(#filter3008)"
       id="g14">
      <path
         style="fill:none;stroke-width:1.74016023"
         inkscape:connector-curvature="0"
         d="M 2.575,2.575 8.926,17.871 15.911,2.718 21.655,2.696"
         id="path10" />
      <path
         style="fill:#eeeeec;fill-rule:evenodd;stroke-width:1.16010678"
         inkscape:connector-curvature="0"
         d="m 4.257,2.575 a 1.6815,1.6815 0 1 1 -3.363,0 1.6815,1.6815 0 1 1 3.363,0 z m 6.372,14.495 a 1.6815,1.6815 0 1 1 -3.363,0 1.6815,1.6815 0 1 1 3.363,0 z M 17.415,2.682 a 1.6815,1.6815 0 1 1 -3.363,0 1.6815,1.6815 0 1 1 3.363,0 z m 5.921,0.014 a 1.6815,1.6815 0 1 1 -3.363,0 1.6815,1.6815 0 1 1 3.363,0 z"
         id="path12" />
    </g>
    <path
       id="path10-0"
       d="m -244.13964,51.147803 1.44972,3.485489 1.59445,-3.452904 1.31116,-0.005"
       inkscape:connector-curvature="0"
       style="fill:none;stroke:#2b3b4d;stroke-width:0.39687499;stroke-linecap:round;stroke-linejoin:round" />
    <path
       id="path12-9"
       d="m -243.7557,51.147803 a 0.38383096,0.38316228 0 1 1 -0.76766,0 0.38383096,0.38316228 0 1 1 0.76766,0 z m 1.45452,3.302965 a 0.38383096,0.38316228 0 1 1 -0.76766,0 0.38383096,0.38316228 0 1 1 0.76766,0 z m 1.54902,-3.278583 a 0.38383096,0.38316228 0 1 1 -0.76766,0 0.38383096,0.38316228 0 1 1 0.76766,0 z m 1.35157,0.0032 a 0.38383096,0.38316228 0 1 1 -0.76766,0 0.38383096,0.38316228 0 1 1 0.76766,0 z"
       inkscape:connector-curvature="0"
       style="fill:#eeeeec;fill-rule:evenodd;stroke:#2b3b4d;stroke-width:0.26458332;stroke-linecap:round;stroke-linejoin:round" />
    <path
       style="fill:#6f6f6f;fill-opacity:1;stroke:#707070;stroke-width:0.26458332;stroke-linecap:butt;stroke-linejoin:miter;stroke-miterlimit:4;stroke-dasharray:none;stroke-opacity:1;filter:url(#filter2391)"
       d="m -240.9592,56.778719 h 0.84586 v -1.2448 h 1.24653 v -0.800227 h -1.27126 l 0.0173,-1.252209 h -0.83844 v 1.252209 h -1.24653 v 0.800227 h 1.24653 z"
       id="path1462-2"
       inkscape:connector-curvature="0"
       sodipodi:nodetypes="ccccccccccccc" />
    <path
       style="fill:#00ff24;fill-opacity:1;stroke:#000000;stroke-width:0.26458332;stroke-linecap:butt;stroke-linejoin:miter;stroke-miterlimit:4;stroke-dasharray:none;stroke-opacity:1"
       d="m -241.17171,56.631072 h 0.84586 v -1.2448 h 1.24653 v -0.800227 h -1.27126 l 0.0173,-1.252209 h -0.83844 v 1.252209 h -1.24653 v 0.800227 h 1.24653 z"
       id="path1462"
       inkscape:connector-curvature="0"
       sodipodi:nodetypes="ccccccccccccc" />
  </g>
</svg>
