<?xml version="1.0" encoding="UTF-8" standalone="no"?>
<svg
   height="24"
   width="24"
   version="1.1"
   id="svg263"
   sodipodi:docname="pan.svg"
   inkscape:version="1.1.2 (0a00cf5339, 2022-02-04)"
   xmlns:inkscape="http://www.inkscape.org/namespaces/inkscape"
   xmlns:sodipodi="http://sodipodi.sourceforge.net/DTD/sodipodi-0.dtd"
   xmlns="http://www.w3.org/2000/svg"
   xmlns:svg="http://www.w3.org/2000/svg">
  <defs
     id="defs267" />
  <sodipodi:namedview
     id="namedview265"
     pagecolor="#505050"
     bordercolor="#eeeeee"
     borderopacity="1"
     inkscape:pageshadow="0"
     inkscape:pageopacity="0"
     inkscape:pagecheckerboard="0"
     showgrid="false"
     inkscape:zoom="26.833333"
     inkscape:cx="11.981366"
     inkscape:cy="11.981366"
     inkscape:window-width="1920"
     inkscape:window-height="1123"
     inkscape:window-x="0"
     inkscape:window-y="0"
     inkscape:window-maximized="1"
     inkscape:current-layer="g261" />
  <path
     d="m 8.5328574,0.86240006 c -1.2392257,0 -2.3879284,0.61210714 -2.3879284,1.46272594 -3.4e-6,9.868e-4 -3.4e-6,0.00198 0,0.00297 l 0.073514,8.013479 -1.178321,-2.0448632 C 5.0083264,8.2408601 4.9647026,8.1879771 4.910931,8.1401005 4.4470607,7.7315437 3.8389472,7.4503958 3.2001717,7.3806526 2.5613285,7.31086 2.0373916,7.4095279 1.5317797,7.4929282 0.76506961,7.6194106 0.32523783,8.0502271 0.15068524,8.4562837 c -0.16584312,0.385878 -0.14473033,0.802304 0.0779733,1.2056307 h -0.002231 L 2.7858429,15.607451 c 0.02063,0.04833 0.049861,0.09505 0.086891,0.138886 l 4.2990944,5.06641 1.0380499,2.316754 c 0.1188751,0.264315 0.5197259,0.460566 0.9355488,0.458027 l 9.861234,-0.05317 c 0.437411,-0.0028 0.849034,-0.227138 0.937781,-0.511251 l 2.684217,-8.557789 c 0.0034,-0.01024 0.0065,-0.02061 0.0089,-0.03099 0.132808,-0.560677 0.08558,-1.503161 0.05344,-2.474847 -0.01609,-0.485844 -0.0366,-0.956275 -0.05122,-1.320912 -0.01471,-0.364589 -0.01099,-0.7075216 -0.01784,-0.6397666 0.0015,-0.01475 0.0023,-0.029523 0.0023,-0.044296 V 7.0865972 c 2.05e-4,-0.04665 -0.0074,-0.093315 -0.0223,-0.1388892 C 22.485114,6.5987132 22.321574,6.2702218 21.947035,5.982917 21.598906,5.7158846 20.985007,5.5476575 20.40783,5.5691774 v -0.00587 c -0.02655,0 -0.05163,0.00523 -0.07798,0.00587 -0.0177,0.00126 -0.03588,-0.00157 -0.05344,0 v 0.00445 c -0.402907,0.017169 -0.781903,0.1083404 -1.093731,0.2512054 v -0.189146 c 0,-0.851128 -1.150377,-1.4627577 -2.390155,-1.4627577 h -0.0067 c -0.707339,0 -1.377262,0.2041853 -1.828801,0.5334186 V 3.8449452 c 0,-0.8497393 -1.14989,-1.4612784 -2.387858,-1.4612784 -0.61515,0 -1.20863,0.1503172 -1.650622,0.4063344 V 2.3251309 c 0,-0.8492308 -1.1464791,-1.4627306 -2.3856996,-1.4627306 z"
     fill="#cccccc"
     stroke-width="1.28215"
     id="path253" />
  <path
     d="m 8.9826525,0.45698905 c -1.2392215,0 -2.3879285,0.61210245 -2.3879285,1.46272155 -3.4e-6,9.868e-4 -3.4e-6,0.00198 0,0.00297 L 6.6682403,9.8337485 5.4898497,7.7888857 C 5.4580542,7.733034 5.4144304,7.6801522 5.3606593,7.6322767 4.8968557,7.2237199 4.2887417,6.94257 3.6498988,6.8728274 3.0111266,6.8030384 2.4871175,6.901706 1.9815069,6.9851024 1.2148661,7.1115833 0.77496503,7.5423998 0.60048118,7.9484587 0.43456841,8.3343367 0.45575154,8.7507604 0.67838492,9.154086 h -0.002152 l 2.55941478,5.945539 c 0.02061,0.04833 0.049817,0.09505 0.086824,0.138883 l 4.299162,5.06641 1.0380512,2.316757 c 0.1188738,0.264315 0.519725,0.460567 0.9355493,0.458029 l 9.8612388,-0.05317 c 0.437413,-0.0028 0.84903,-0.227138 0.93778,-0.511251 l 2.684148,-8.557739 c 0.0034,-0.01036 0.0063,-0.02065 0.0089,-0.03105 0.132884,-0.560629 0.08563,-1.50316 0.05352,-2.474845 -0.01611,-0.485843 -0.03659,-0.956275 -0.05128,-1.32091 -0.01462,-0.3645921 -0.01087,-0.7075234 -0.01784,-0.6397249 0.0015,-0.014761 0.0023,-0.029558 0.0023,-0.044343 V 6.5788056 c 2.21e-4,-0.046648 -0.0074,-0.093312 -0.02227,-0.1388857 -0.116825,-0.349031 -0.280358,-0.6775232 -0.65497,-0.964827 -0.348132,-0.2670346 -0.96203,-0.4352604 -1.539205,-0.4136931 v -0.00593 c -0.02648,0 -0.05157,0.00523 -0.07797,0.00593 -0.0177,0.00121 -0.03582,-0.00161 -0.05345,0 v 0.00439 C 20.3233,5.082965 19.944303,5.1741344 19.632407,5.3169982 v -0.189144 c 0,-0.8511291 -1.150312,-1.4627135 -2.39009,-1.4627135 h -0.0067 c -0.707344,0 -1.377332,0.2041401 -1.828801,0.5333722 v -0.8614 c 0,-0.8497404 -1.14996,-1.4612785 -2.387929,-1.4612785 -0.615085,0 -1.208631,0.1503155 -1.650553,0.4063345 V 1.9197081 c 0,-0.8492302 -1.146546,-1.46272682 -2.3856995,-1.46272682 z"
     fill="#999999"
     stroke-width="1.28215"
     id="path255" />
  <g
     stroke="#000000"
     id="g261"
     transform="matrix(1,0,0,0.83053747,-0.46902523,1.5460897)"
     style="stroke:#0996e6;stroke-opacity:1">
    <path
       d="m 10.151702,-1.6377315 c -1.2114184,0 -2.3343438,0.72142187 -2.3343438,1.72391274 -3.4e-6,0.001173 -3.4e-6,0.0023425 0,0.0035196 L 7.8892006,9.5025212 6.7372891,7.0925257 C 6.7061983,7.0266878 6.6635395,6.964351 6.6109568,6.9079182 6.1575385,6.426421 5.563082,6.095094 4.9385919,6.0129035 4.3141033,5.9306585 3.8018734,6.0469518 3.3076184,6.1452439 2.5581196,6.2943027 2.1281132,6.8020456 1.957532,7.2805887 1.7953825,7.7353406 1.816078,8.2261415 2.0337637,8.7015106 h -0.00222 l 2.5020658,7.0070954 c 0.020148,0.05695 0.0487,0.112017 0.084874,0.163659 l 4.2027204,5.971051 1.0147088,2.7304 c 0.1162231,0.311502 0.5080833,0.542778 0.9145733,0.53978 l 9.640066,-0.06269 c 0.427576,-0.0033 0.829948,-0.267654 0.916737,-0.60247 L 23.931303,14.36257 c 0.0033,-0.01215 0.0062,-0.02435 0.0087,-0.03661 0.129818,-0.660756 0.08368,-1.77153 0.05226,-2.91668 -0.01574,-0.572602 -0.03575,-1.127043 -0.05011,-1.5567729 -0.01436,-0.4297327 -0.01042,-0.8338867 -0.01741,-0.7539816 0.0014,-0.017396 0.0023,-0.03483 0.0023,-0.052266 V 5.6663608 c 1.93e-4,-0.054966 -0.0073,-0.1099495 -0.02182,-0.1636486 C 23.790951,5.0913663 23.631103,4.704206 23.26492,4.3655827 22.924591,4.0508611 22.324492,3.8526563 21.760212,3.8780096 v -0.00696 c -0.02586,0 -0.05045,0.00618 -0.07617,0.00696 -0.01735,0.00146 -0.0351,-0.0019 -0.05226,0 v 0.00524 c -0.393841,0.020228 -0.76434,0.1276623 -1.0692,0.2959987 V 3.9563571 c 0,-1.0030601 -1.124524,-1.7238861 -2.336504,-1.7238861 h -0.0066 c -0.691523,0 -1.346391,0.2406095 -1.787758,0.6286052 V 1.8458696 c 0,-1.0014442 -1.124176,-1.72215786 -2.334341,-1.72215786 -0.601355,0 -1.181526,0.17719631 -1.613622,0.47887863 V 0.08618289 c 0,-1.00085806 -1.120765,-1.72391269 -2.332115,-1.72391269 z"
       stroke-width="0.0430223"
       id="path257"
       style="fill:#0996e6;fill-opacity:1;stroke:#0996e6;stroke-opacity:1" />
    <path
       d="m 10.150728,-0.75891869 c -0.7688027,0 -1.3885508,0.43134806 -1.3885508,0.96773113 L 8.8448874,11.252316 C 8.8232167,11.71002 7.9714955,11.791151 7.8109492,11.456317 L 5.855884,7.3628345 C 5.1274303,6.5891842 4.5055193,6.6860841 3.5369427,6.8787173 2.8787962,7.0096644 2.6062702,7.8320172 2.9406042,8.4943892 l 2.5003944,7.0071538 4.2551226,6.04594 1.0463418,2.810972 9.638886,-0.06274 2.625264,-10.086707 c 0.17288,-0.879526 -0.05359,-4.8223876 -0.02446,-5.163411 V 5.6665328 C 22.790182,4.9749052 22.430136,4.5520289 21.759377,4.6260822 c -0.770194,0 -1.165776,0.5040662 -1.165776,1.0404493 v 3.3444597 c 0.134416,0.4533602 -1.026694,0.5714886 -0.97708,-0.00228 v -5.051627 c 0,-0.5363846 -0.620516,-0.9685122 -1.390712,-0.9685122 h -0.0066 c -0.770195,0 -1.389596,0.4321276 -1.389596,0.9685122 v 4.0569257 c 0.140335,0.4904154 -1.375383,0.6338424 -1.341866,-0.00228 V 1.8467597 c 0,-0.5363843 -0.620519,-0.96778644 -1.390712,-0.96778644 -0.770263,0 -1.390778,0.43140214 -1.390778,0.96778644 v 6.4803534 c 0.0609,0.4495669 -1.137347,0.562851 -1.16815,-0.00152 V 0.20880149 c 0,-0.53638306 -0.618635,-0.96773073 -1.387432,-0.96773073 z"
       fill="#ffffff"
       stroke-width="0.0200164"
       id="path259"
       style="stroke:#0996e6;stroke-opacity:1" />
  </g>
</svg>
