<?xml version="1.0" encoding="UTF-8" standalone="no"?>
<svg
   xmlns:dc="http://purl.org/dc/elements/1.1/"
   xmlns:cc="http://creativecommons.org/ns#"
   xmlns:rdf="http://www.w3.org/1999/02/22-rdf-syntax-ns#"
   xmlns:svg="http://www.w3.org/2000/svg"
   xmlns="http://www.w3.org/2000/svg"
   xmlns:xlink="http://www.w3.org/1999/xlink"
   xmlns:sodipodi="http://sodipodi.sourceforge.net/DTD/sodipodi-0.dtd"
   xmlns:inkscape="http://www.inkscape.org/namespaces/inkscape"
   height="24"
   width="24"
   version="1.1"
   id="svg48"
   sodipodi:docname="selectWatershed.svg"
   inkscape:version="0.92.5 (2060ec1f9f, 2020-04-08)">
  <metadata
     id="metadata54">
    <rdf:RDF>
      <cc:Work
         rdf:about="">
        <dc:format>image/svg+xml</dc:format>
        <dc:type
           rdf:resource="http://purl.org/dc/dcmitype/StillImage" />
        <dc:title></dc:title>
      </cc:Work>
    </rdf:RDF>
  </metadata>
  <defs
     id="defs52">
    <filter
       inkscape:collect="always"
       style="color-interpolation-filters:sRGB"
       id="filter4890"
       x="-0.075192164"
       width="1.1503843"
       y="-0.087953768"
       height="1.1759075">
      <feGaussianBlur
         inkscape:collect="always"
         stdDeviation="0.51659717"
         id="feGaussianBlur4892" />
    </filter>
    <filter
       inkscape:collect="always"
       style="color-interpolation-filters:sRGB"
       id="filter4894"
       x="-0.0990738"
       width="1.1981476"
       y="-0.091902981"
       height="1.183806">
      <feGaussianBlur
         inkscape:collect="always"
         stdDeviation="0.51659717"
         id="feGaussianBlur4896" />
    </filter>
  </defs>
  <sodipodi:namedview
     pagecolor="#ffffff"
     bordercolor="#666666"
     borderopacity="1"
     objecttolerance="10"
     gridtolerance="10"
     guidetolerance="10"
     inkscape:pageopacity="0"
     inkscape:pageshadow="2"
     inkscape:window-width="1920"
     inkscape:window-height="1051"
     id="namedview50"
     showgrid="false"
     inkscape:zoom="9.8333334"
     inkscape:cx="-6.650059"
     inkscape:cy="9.9551287"
     inkscape:window-x="0"
     inkscape:window-y="0"
     inkscape:window-maximized="1"
     inkscape:current-layer="svg48" />
  <linearGradient
     id="a"
     gradientUnits="userSpaceOnUse"
     x1="64"
     x2="64"
     y1="21.9"
     y2="104">
    <stop
       offset="0"
       stop-color="#dadada"
       id="stop2" />
    <stop
       offset="1"
       stop-color="#ccc"
       id="stop4" />
  </linearGradient>
  <linearGradient
     id="b"
     gradientUnits="userSpaceOnUse"
     x1="64"
     x2="64"
     xlink:href="#a"
     y1="21.5"
     y2="103">
    <stop
       offset="0"
       stop-color="#d9d9d9"
       id="stop7" />
    <stop
       offset="1"
       stop-color="#ccc"
       id="stop9" />
  </linearGradient>
  <linearGradient
     id="c"
     gradientUnits="userSpaceOnUse"
     x1="20.103001"
     x2="20.103001"
     xlink:href="#b"
     y1="6.6275001"
     y2="32.952" />
  <linearGradient
     id="d"
     gradientUnits="userSpaceOnUse"
     x1="15.3549"
     x2="15.3872"
     xlink:href="#b"
     y1="6.8859"
     y2="32.629002" />
  <linearGradient
     id="e"
     gradientUnits="userSpaceOnUse"
     x1="20.110001"
     x2="20.110001"
     xlink:href="#a"
     y1="8.7720003"
     y2="31.76" />
  <linearGradient
     id="f"
     gradientUnits="userSpaceOnUse"
     x1="26.298"
     x2="25.878"
     y1="32.040001"
     y2="8.4919996">
    <stop
       offset="0"
       stop-color="#fff"
       id="stop15" />
    <stop
       offset="1"
       stop-color="#959595"
       id="stop17" />
  </linearGradient>
  <linearGradient
     id="g"
     gradientUnits="userSpaceOnUse"
     x1="20.1"
     x2="20.1"
     y1="2.24"
     y2="38.299999">
    <stop
       offset="0"
       stop-color="#f2f2f2"
       id="stop20" />
    <stop
       offset="1"
       stop-color="#d8d8d8"
       id="stop22" />
  </linearGradient>
  <radialGradient
     id="h"
     cx="6.6999998"
     cy="73.599998"
     gradientTransform="matrix(2.65,0,0,0.844,2.36,-26.5)"
     gradientUnits="userSpaceOnUse"
     r="7.23">
    <stop
       offset="0"
       id="stop25" />
    <stop
       offset="1"
       stop-opacity="0"
       id="stop27" />
  </radialGradient>
  <g
     id="g4900"
     transform="translate(40.77966,6.1016949)">
    <path
       inkscape:connector-curvature="0"
       id="path819-0"
       d="m -23.054729,-3.3225787 c 0,0 -3.511596,-0.449691 -5.942696,0.835185 -2.431102,1.284877 -7.225778,2.56973005 -7.225778,2.56973005 0,0 -1.823327,0.321248 -2.566165,2.89097695 -0.742836,2.569752 -1.14802,6.295893 -0.202592,6.360114 0.945429,0.06413 6.010227,2.3770177 7.630963,0.8351847 1.620734,-1.5418787 4.997264,-4.8825487 5.132327,-6.2959157 0.135063,-1.41332 2.29604,-5.332194 2.498632,-5.846153 0.202591,-0.513937 0.675309,-1.349122 0.675309,-1.349122 z"
       style="fill:#7f817f;fill-opacity:1;stroke:#818181;stroke-width:0.99999994px;stroke-linecap:butt;stroke-linejoin:miter;stroke-opacity:1;filter:url(#filter4890)" />
    <path
       d="m -19.118652,10.435768 -11.713705,-6.3795387 5.038658,12.4079087 2.007223,-3.224885 3.967356,4.307651 1.501002,-1.451491 -4.05565,-4.266682 z"
       id="path44-9"
       inkscape:connector-curvature="0"
       style="fill:#7f817f;fill-opacity:1;fill-rule:evenodd;stroke:#818181;stroke-width:1.20000005;stroke-linecap:round;stroke-linejoin:round;stroke-miterlimit:4;stroke-dasharray:none;stroke-opacity:1;filter:url(#filter4894)" />
  </g>
  <path
     style="fill:#9bff71;fill-opacity:1;stroke:#0daf13;stroke-width:0.99999994px;stroke-linecap:butt;stroke-linejoin:miter;stroke-opacity:1"
     d="m 17.509837,1.0652716 c 0,0 -3.511596,-0.449691 -5.942696,0.8351851 -2.4311023,1.2848769 -7.225778,2.56973 -7.225778,2.56973 0,0 -1.8233274,0.3212479 -2.5661648,2.8909773 -0.7428368,2.5697523 -1.14802086,6.295892 -0.2025927,6.360113 0.9454288,0.06413 6.0102272,2.377018 7.6309632,0.835185 1.6207343,-1.541879 4.9972643,-4.8825483 5.1323273,-6.2959147 0.135063,-1.4133201 2.29604,-5.3321946 2.498632,-5.8461533 0.202591,-0.5139373 0.675309,-1.3491224 0.675309,-1.3491224 z"
     id="path819"
     inkscape:connector-curvature="0" />
  <path
     style="fill:#ffffff;fill-rule:evenodd;stroke:#262626;stroke-width:1.20000005;stroke-linecap:round;stroke-linejoin:round;stroke-miterlimit:4;stroke-dasharray:none"
     inkscape:connector-curvature="0"
     id="path44"
     d="M 21.445914,14.823618 9.7322083,8.4440794 14.770867,20.851988 l 2.007223,-3.224885 3.967356,4.307651 1.501002,-1.451491 -4.05565,-4.266682 z" />
</svg>
