<?xml version="1.0" encoding="UTF-8" standalone="no"?>
<!-- Created with Inkscape (http://www.inkscape.org/) -->

<svg
   xmlns:dc="http://purl.org/dc/elements/1.1/"
   xmlns:cc="http://creativecommons.org/ns#"
   xmlns:rdf="http://www.w3.org/1999/02/22-rdf-syntax-ns#"
   xmlns:svg="http://www.w3.org/2000/svg"
   xmlns="http://www.w3.org/2000/svg"
   xmlns:sodipodi="http://sodipodi.sourceforge.net/DTD/sodipodi-0.dtd"
   xmlns:inkscape="http://www.inkscape.org/namespaces/inkscape"
   width="24"
   height="24"
   viewBox="0 0 24 24"
   version="1.1"
   id="svg1299"
   inkscape:version="0.92.5 (2060ec1f9f, 2020-04-08)"
   sodipodi:docname="zoomFullExtent.svg">
  <defs
     id="defs1293" />
  <sodipodi:namedview
     id="base"
     pagecolor="#ffffff"
     bordercolor="#666666"
     borderopacity="1.0"
     inkscape:pageopacity="0.0"
     inkscape:pageshadow="2"
     inkscape:zoom="8"
     inkscape:cx="-3.3985214"
     inkscape:cy="15.127494"
     inkscape:document-units="px"
     inkscape:current-layer="layer1"
     showgrid="false"
     units="px"
     showguides="true"
     inkscape:guide-bbox="true"
     inkscape:object-nodes="true"
     inkscape:snap-others="true"
     inkscape:snap-object-midpoints="true"
     inkscape:snap-midpoints="false"
     inkscape:window-width="1920"
     inkscape:window-height="1015"
     inkscape:window-x="1920"
     inkscape:window-y="0"
     inkscape:window-maximized="1"
     width="24mm"
     fit-margin-top="0"
     fit-margin-left="0"
     fit-margin-right="0"
     fit-margin-bottom="0"
     inkscape:snap-global="true"
     inkscape:snap-bbox="true"
     inkscape:bbox-paths="true" />
  <metadata
     id="metadata1296">
    <rdf:RDF>
      <cc:Work
         rdf:about="">
        <dc:format>image/svg+xml</dc:format>
        <dc:type
           rdf:resource="http://purl.org/dc/dcmitype/StillImage" />
        <dc:title></dc:title>
      </cc:Work>
    </rdf:RDF>
  </metadata>
  <g
     inkscape:label="Calque 1"
     inkscape:groupmode="layer"
     id="layer1"
     transform="translate(-0.21842464,-273.18598)">
    <path
       style="fill:#030303;fill-opacity:1;stroke:none;stroke-width:1px;stroke-linecap:butt;stroke-linejoin:miter;stroke-opacity:1"
       d="m 5.943925,291.46438 -5.37575946,2.21441 3.17063726,3.16136 2.2051222,-5.37577"
       id="path2292"
       inkscape:connector-curvature="0"
       sodipodi:nodetypes="cccc" />
    <path
       style="fill:#030303;fill-opacity:1;stroke:none;stroke-width:1px;stroke-linecap:butt;stroke-linejoin:miter;stroke-opacity:1"
       d="m 18.51856,291.4576 5.342741,2.24352 -3.170639,3.16136 -2.172102,-5.40488"
       id="path2292-8"
       inkscape:connector-curvature="0"
       sodipodi:nodetypes="cccc" />
    <path
       style="fill:#030303;fill-opacity:1;stroke:none;stroke-width:1px;stroke-linecap:butt;stroke-linejoin:miter;stroke-opacity:1"
       d="m 18.485593,278.9537 5.398366,-2.29898 -3.170639,-3.16136 -2.227727,5.46034"
       id="path2292-8-3"
       inkscape:connector-curvature="0"
       sodipodi:nodetypes="cccc" />
    <path
       style="fill:#030303;fill-opacity:1;stroke:none;stroke-width:1px;stroke-linecap:butt;stroke-linejoin:miter;stroke-opacity:1"
       d="m 5.9563152,278.9197 -5.43412522,-2.25931 3.17063942,-3.16136 2.2634858,5.42067"
       id="path2292-8-1"
       inkscape:connector-curvature="0"
       sodipodi:nodetypes="cccc" />
    <path
       style="fill:#82de46;fill-opacity:1;stroke:none;stroke-width:1px;stroke-linecap:butt;stroke-linejoin:miter;stroke-opacity:1"
       d="m 13.468425,278.87348 c -3.8815112,0.11624 -5.6377877,0.20775 -6.3943793,1.17068 0,0 -2.6113638,2.04997 0.2068789,3.26682 1.8821955,0.81269 1.625,2.9375 1.625,2.9375 l -0.8105475,3.06445 c 0,0 -0.4394525,2.06055 0.2480475,2.56055 0.6875,0.5 4.2500004,0.1433 4.2500004,0.1433 2.525095,-0.1661 2.033776,-0.70092 2.9375,-1.01831 1.648379,-0.52326 2.119722,-0.62905 2.609375,-2.22301 0.151344,-0.49266 0.614895,-4.52193 0.578125,-4.77699 -0.384564,-2.66748 -2.683198,-4.1375 -3.139515,-4.49242 -0.871743,-0.65952 -1.363511,-0.6446 -2.110485,-0.63258 z"
       id="path894"
       inkscape:connector-curvature="0"
       sodipodi:nodetypes="ccsccsccssccc" />
    <path
       style="color:#000000;font-style:normal;font-variant:normal;font-weight:normal;font-stretch:normal;font-size:medium;line-height:normal;font-family:sans-serif;font-variant-ligatures:normal;font-variant-position:normal;font-variant-caps:normal;font-variant-numeric:normal;font-variant-alternates:normal;font-feature-settings:normal;text-indent:0;text-align:start;text-decoration:none;text-decoration-line:none;text-decoration-style:solid;text-decoration-color:#000000;letter-spacing:normal;word-spacing:normal;text-transform:none;writing-mode:lr-tb;direction:ltr;text-orientation:mixed;dominant-baseline:auto;baseline-shift:baseline;text-anchor:start;white-space:normal;shape-padding:0;clip-rule:nonzero;display:inline;overflow:visible;visibility:visible;opacity:1;isolation:auto;mix-blend-mode:normal;color-interpolation:sRGB;color-interpolation-filters:linearRGB;solid-color:#000000;solid-opacity:1;vector-effect:none;fill:#1587ff;fill-opacity:1;fill-rule:nonzero;stroke:none;stroke-width:2;stroke-linecap:round;stroke-linejoin:miter;stroke-miterlimit:4;stroke-dasharray:none;stroke-dashoffset:0;stroke-opacity:1;color-rendering:auto;image-rendering:auto;shape-rendering:auto;text-rendering:auto;enable-background:accumulate"
       d="m 10.085937,279.01953 c 0,0 -0.5464306,0.0549 -0.8467279,0.0975 -0.1381516,0.0196 -0.00919,0.33343 0.1025878,0.54903 0,0 0.6870971,1.3792 1.5410151,2.85937 0.42696,0.74009 0.89401,1.50705 1.357422,2.16016 0.463412,0.6531 0.83125,1.18684 1.488282,1.55664 1.202817,0.67698 1.321662,0.60067 1.36328,1.00391 -0.06025,0.1312 -0.09119,0.19603 -0.277343,0.31054 -0.495178,0.30459 -1.273547,0.65415 -2.001953,1.13672 -0.728406,0.48257 -1.531987,1.19586 -1.628906,2.30859 -0.02614,0.24084 -0.303069,1.11864 -0.115964,1.11283 0.342163,-0.0106 0.707064,-0.028 1.045802,-0.0574 0.275334,-0.0239 0.577257,-0.0502 0.874923,-0.0739 0.223981,-0.0178 0.167783,-0.5104 0.187426,-0.80771 0.01675,-0.19224 0.208798,-0.46237 0.740235,-0.81445 0.531436,-0.35208 1.276143,-0.68875 1.947265,-1.10156 0.335561,-0.20641 0.663724,-0.43035 0.949219,-0.77539 0.285495,-0.34505 0.512807,-0.90444 0.416016,-1.45704 -0.193583,-1.10519 -1.066502,-1.70954 -2.519532,-2.52734 0.01752,0.01 -0.433074,-0.40489 -0.835937,-0.97266 -0.402864,-0.56777 -0.849492,-1.29417 -1.257813,-2.00195 -0.816641,-1.41556 -1.443358,-2.57422 -1.443359,-2.57422 -0.646909,0.039 -0.65071,0.042 -1.085938,0.0684 z"
       id="path898"
       inkscape:connector-curvature="0"
       sodipodi:nodetypes="csccccccscssscscccccsccc" />
  </g>
</svg>
